<svg version="1.1" id="Layer_1" xmlns="http://www.w3.org/2000/svg" xmlns:xlink="http://www.w3.org/1999/xlink" x="0px" y="0px"
	 width="100%" viewBox="0 0 200 200" enable-background="new 0 0 200 200" xml:space="preserve">
<path fill="#FEFEFE" opacity="1.000000" stroke="none" 
	d="
M138.000000,201.000000 
	C93.166672,201.000000 48.833237,200.962540 4.500236,201.083496 
	C1.517086,201.091629 0.912480,200.482437 0.917509,197.499878 
	C1.025994,133.166733 1.025986,68.833305 0.917517,4.500159 
	C0.912489,1.517693 1.517539,0.912478 4.500119,0.917508 
	C68.833267,1.025991 133.166687,1.025986 197.499832,0.917520 
	C200.482269,0.912491 201.087524,1.517495 201.082504,4.500107 
	C200.974014,68.833252 200.973999,133.166672 201.082474,197.499817 
	C201.087494,200.482208 200.486191,201.112350 197.499298,201.086807 
	C177.834061,200.918625 158.166687,201.000000 138.000000,201.000000 
z"/>
<path fill="#25394B" opacity="1.000000" stroke="none" 
	d="
M83.773987,59.452843 
	C85.913910,60.059967 87.732071,60.343353 89.450401,60.922787 
	C94.259224,62.544365 94.862473,65.416023 91.428955,69.218231 
	C90.528236,70.215660 89.825470,70.039726 88.848869,69.611153 
	C87.787262,69.145279 86.702820,68.697144 85.586670,68.395393 
	C77.686684,66.259621 73.640594,69.125961 73.505020,77.231598 
	C73.352104,86.374146 73.467758,95.521164 73.465187,104.666237 
	C73.463417,110.976997 73.462173,110.986107 67.038857,110.869354 
	C66.220268,110.854469 65.404480,110.685387 64.301941,110.293297 
	C62.331089,108.044853 62.523479,105.622849 62.510582,103.326759 
	C62.460052,94.333008 62.427292,85.338219 62.657379,75.905663 
	C63.515900,71.132759 64.808846,66.960533 67.041519,62.682972 
	C67.414719,62.127064 67.587929,61.922398 68.097519,61.501183 
	C69.392929,60.842831 70.438919,60.663666 71.791374,60.153389 
	C72.412605,59.925137 72.664726,59.838772 73.305511,59.646763 
	C76.907082,58.586212 80.134888,58.154213 83.773987,59.452843 
z"/>
<path fill="#24384A" opacity="1.000000" stroke="none" 
	d="
M87.325935,105.306030 
	C85.530457,104.681572 84.053726,104.388359 82.642715,103.903778 
	C77.699883,102.206329 77.121559,99.583611 80.598236,95.589409 
	C81.470238,94.587601 82.171654,94.729881 83.164589,95.101646 
	C84.717674,95.683144 86.270332,96.347237 87.884415,96.670181 
	C94.634872,98.020790 98.263985,95.440918 98.502525,88.562218 
	C98.808037,79.752090 98.628601,70.924843 98.640900,62.104950 
	C98.653030,53.402546 98.643600,53.402534 107.803879,54.648788 
	C109.499847,56.627640 109.526276,58.656044 109.534111,60.650829 
	C109.570641,69.949684 109.169426,79.246536 109.340538,88.988022 
	C109.150932,90.269363 108.902771,91.080345 108.558815,92.270523 
	C108.218491,94.131332 107.890617,95.590103 107.125854,97.294693 
	C106.736626,98.027359 106.482597,98.423988 106.008118,99.089226 
	C105.417717,99.941765 105.022644,100.509422 104.449432,101.384109 
	C103.160538,103.014557 101.712090,103.909477 99.992462,105.075043 
	C97.711334,106.343613 95.566994,106.324295 93.019775,106.370789 
	C90.915237,106.384819 89.209557,106.475838 87.325935,105.306030 
z"/>
<path fill="#384A5A" opacity="1.000000" stroke="none" 
	d="
M63.260426,138.166382 
	C60.305721,140.843262 58.823811,138.904831 57.396145,136.342651 
	C56.645699,134.995880 56.402122,132.753464 54.272686,132.973862 
	C51.606026,133.249847 52.960873,135.558853 52.834064,136.954514 
	C52.688450,138.557159 52.284584,139.407822 50.527893,139.389114 
	C48.730484,139.369934 48.310646,138.418884 48.339497,136.849594 
	C48.394360,133.864990 48.164490,130.862793 48.411922,127.897865 
	C48.619175,125.414421 46.869518,121.625137 49.637783,120.723816 
	C53.075390,119.604546 57.321133,119.407516 60.791721,121.338799 
	C63.939476,123.090416 65.488373,126.801697 62.910149,129.282745 
	C59.245049,132.809708 61.432976,135.081741 63.260426,138.166382 
z"/>
<path fill="#304354" opacity="1.000000" stroke="none" 
	d="
M77.547943,128.800018 
	C78.471016,128.796783 78.982491,128.726379 79.468208,128.808426 
	C81.341766,129.124863 84.158813,127.714020 84.920204,129.732086 
	C85.874634,132.261780 84.386726,134.927078 82.492714,136.963684 
	C79.213814,140.489487 73.206490,140.710953 69.287575,137.522583 
	C65.330589,134.303238 64.586433,128.121811 67.662582,124.024384 
	C70.728973,119.939949 77.060616,118.778702 81.076942,121.658203 
	C82.046043,122.353004 83.839630,123.047737 82.859833,124.626488 
	C82.044861,125.939674 80.775902,126.031830 79.038445,125.140396 
	C74.037849,122.574753 69.538689,125.442230 70.090981,130.573730 
	C70.366203,133.130783 71.732346,134.990936 74.207199,135.689636 
	C76.619377,136.370636 78.811058,136.006088 79.926460,133.395386 
	C78.749390,131.374115 75.141365,134.242371 74.895203,130.658813 
	C74.779846,128.979599 75.837463,128.767471 77.547943,128.800018 
z"/>
<path fill="#2D4052" opacity="1.000000" stroke="none" 
	d="
M149.462189,120.369003 
	C152.215698,120.425545 154.582153,120.221504 156.851730,120.599342 
	C161.158127,121.316284 164.062119,126.366066 161.228851,129.041946 
	C157.037491,133.000504 159.932281,135.452835 161.783630,138.637619 
	C158.605164,140.305817 156.921753,138.991623 155.565201,136.204407 
	C154.901154,134.840042 154.557663,132.644165 152.374161,132.913452 
	C149.679962,133.245758 151.204651,135.520782 150.953796,136.913437 
	C150.740173,138.099487 150.887131,139.300247 149.208527,139.320236 
	C148.030502,139.334259 146.741348,139.453552 146.742401,137.710052 
	C146.745605,132.393967 146.736313,127.077225 146.824493,121.762268 
	C146.846497,120.436592 148.017685,120.402870 149.462189,120.369003 
z"/>
<path fill="#304354" opacity="1.000000" stroke="none" 
	d="
M39.103050,120.603813 
	C45.136036,123.878090 47.177868,128.694534 45.014210,133.815598 
	C42.996311,138.591675 37.714752,140.880569 32.587109,139.201172 
	C27.745052,137.615341 25.072374,132.922836 26.088161,127.790817 
	C27.177950,122.284935 31.698820,119.666153 39.103050,120.603813 
z"/>
<path fill="#354757" opacity="1.000000" stroke="none" 
	d="
M142.299683,120.401031 
	C145.175339,123.359047 143.592529,123.782257 140.766998,124.218102 
	C138.642868,124.545746 134.749084,122.251732 134.650162,125.917412 
	C134.543747,129.860840 138.536026,127.123947 140.575409,127.836517 
	C141.711716,128.233566 143.424545,127.451874 143.533920,129.533554 
	C143.655060,131.839462 141.897873,131.332230 140.494827,131.736511 
	C138.459991,132.322845 134.489792,129.748077 134.667801,133.784821 
	C134.826065,137.373779 138.674255,135.049316 140.797684,135.645874 
	C141.982849,135.978836 143.653473,135.305923 143.761597,137.363632 
	C143.889877,139.805130 142.040634,139.287354 140.630539,139.368362 
	C130.077209,139.974701 130.077042,139.972122 130.075745,129.759079 
	C130.074554,120.330429 130.074570,120.330345 139.375656,120.337006 
	C140.207657,120.337601 141.039642,120.340263 142.299683,120.401031 
z"/>
<path fill="#324556" opacity="1.000000" stroke="none" 
	d="
M87.007301,136.601440 
	C87.005951,131.991730 87.140938,127.836716 86.958687,123.695663 
	C86.842331,121.051796 87.813675,120.144356 90.389496,120.309845 
	C93.034172,120.479767 95.698120,120.362961 98.353500,120.347466 
	C99.694397,120.339645 100.617172,120.762886 100.627266,122.291756 
	C100.637970,123.912804 99.585953,124.134895 98.298492,124.110542 
	C96.971268,124.085434 95.641846,124.072517 94.315742,124.119919 
	C92.917130,124.169914 91.145050,123.669739 91.249840,126.119049 
	C91.356842,128.620117 93.249756,127.735718 94.546295,127.867371 
	C95.696320,127.984138 96.867554,127.907135 98.029091,127.891350 
	C99.265198,127.874550 100.385834,127.921608 100.348900,129.644379 
	C100.317055,131.129440 99.583626,131.680023 98.166885,131.650543 
	C96.508553,131.616028 94.846054,131.627365 93.189720,131.708130 
	C92.146645,131.759003 91.277580,132.103043 91.253609,133.432480 
	C91.227974,134.853561 91.860909,135.612503 93.270828,135.648590 
	C95.095474,135.695282 96.921478,135.689636 98.746910,135.704468 
	C99.651413,135.711823 100.393959,136.000381 100.564278,136.985855 
	C100.708107,137.818069 100.688141,139.017181 99.772331,139.058685 
	C95.578506,139.248856 91.317329,140.264328 87.230156,138.480255 
	C86.994972,138.377609 87.075615,137.551468 87.007301,136.601440 
z"/>
<path fill="#2C4051" opacity="1.000000" stroke="none" 
	d="
M175.963257,122.007980 
	C177.877945,126.989075 179.693604,131.601608 181.443375,136.238998 
	C181.803513,137.193466 182.993423,138.486649 181.320145,139.142578 
	C180.183090,139.588303 178.757477,139.685501 177.684708,138.458359 
	C174.366409,134.662598 171.060852,134.653183 167.782104,138.565063 
	C166.772171,139.770035 165.246750,139.587753 164.105011,139.155884 
	C162.251587,138.454788 163.811096,137.155258 164.109573,136.316772 
	C165.660431,131.959824 167.467316,127.694443 169.042099,123.345421 
	C170.513184,119.282768 172.921005,119.590019 175.963257,122.007980 
z"/>
<path fill="#324556" opacity="1.000000" stroke="none" 
	d="
M121.032730,138.994171 
	C117.466309,139.951218 115.542786,138.989120 114.548096,135.487259 
	C113.423157,131.526871 111.500084,127.799110 110.186043,123.882317 
	C109.857010,122.901566 107.731262,121.148788 110.532234,120.433212 
	C112.293671,119.983223 113.667656,120.483513 114.342194,122.550209 
	C115.517754,126.151985 116.950638,129.669785 118.437271,133.656143 
	C120.841721,130.080688 121.695404,126.358307 122.925949,122.834419 
	C123.703888,120.606659 125.189705,119.804558 127.069176,120.453400 
	C129.479660,121.285561 127.569351,122.921585 127.153648,124.036629 
	C125.306931,128.990128 123.295273,133.882141 121.032730,138.994171 
z"/>
<path fill="#EBECED" opacity="1.000000" stroke="none" 
	d="
M63.882423,73.792633 
	C64.178360,85.716202 64.177887,97.394699 64.096954,109.536034 
	C63.390091,109.729706 62.763691,109.460548 61.980808,108.876373 
	C60.925858,107.882576 61.205444,106.605881 60.185982,105.698029 
	C59.506279,105.486885 59.145615,105.320038 58.671329,104.451187 
	C58.500473,103.686729 58.508652,103.490196 58.641495,103.037376 
	C58.974258,102.473602 59.090370,102.136429 58.994541,101.498779 
	C58.610989,100.715691 58.293091,100.217621 57.849335,99.436630 
	C57.594532,98.519333 57.742691,97.957832 58.383400,97.259102 
	C58.855732,96.762123 59.018661,96.432762 59.014927,95.750854 
	C58.993027,95.466179 58.998848,95.500610 58.990520,95.484909 
	C59.327347,94.788315 59.903606,94.226646 60.075348,93.132126 
	C60.179527,91.889236 59.780144,91.194267 58.738186,90.483475 
	C57.768631,89.277504 57.416393,88.316818 58.895885,87.262985 
	C59.991318,86.538239 59.941494,85.760063 59.636002,84.622513 
	C59.534512,84.099243 59.507622,83.889267 59.481613,83.366592 
	C59.522434,82.445786 59.565052,81.837723 59.482552,80.929794 
	C59.379726,79.829597 59.190979,79.052963 58.906662,77.987152 
	C58.903286,77.475136 59.013710,77.304428 59.324654,77.099854 
	C59.808437,76.745193 60.670948,76.829956 60.091080,75.713333 
	C59.979931,75.453041 60.015079,75.509041 59.987930,75.527908 
	C60.266808,74.826157 60.767300,74.260574 61.720558,73.615967 
	C62.583576,73.349625 63.088966,73.380684 63.882423,73.792633 
z"/>
<path fill="#EFEFF0" opacity="1.000000" stroke="none" 
	d="
M107.918243,91.284744 
	C107.781807,79.289032 107.812416,67.601517 107.944977,55.454506 
	C109.861237,54.712307 111.210037,55.598106 112.766235,56.909096 
	C113.222282,57.439209 113.231003,57.807838 112.916801,58.399673 
	C112.599304,58.974155 112.322350,59.107075 111.975128,59.254833 
	C112.005585,59.484467 112.304527,59.844585 112.443863,60.034790 
	C112.806221,60.459606 112.961006,60.732876 113.026947,61.282097 
	C113.006332,61.519398 112.989403,61.471416 113.013123,61.462223 
	C112.545258,62.134472 112.337715,62.875484 112.545601,64.011452 
	C112.465309,64.720551 112.488747,65.119736 112.784744,65.761559 
	C112.958702,66.011093 113.019958,65.965340 113.047043,65.992310 
	C113.194550,66.163681 113.314957,66.308075 113.431137,66.735138 
	C113.272530,67.563187 113.018684,68.064262 112.585922,68.784737 
	C112.292557,69.135620 112.155159,69.256882 111.766205,69.479706 
	C111.240067,69.524918 110.986671,69.559303 110.754723,69.684921 
	C110.517410,69.813454 110.612839,69.832138 111.238129,69.922249 
	C111.501228,70.271774 111.566963,70.439575 111.660622,70.876259 
	C111.670876,71.323479 111.653206,71.501801 111.572342,71.938461 
	C111.409691,72.531715 111.325279,72.870308 111.256439,73.472435 
	C111.307289,74.259674 111.430191,74.773041 111.654274,75.550247 
	C111.738693,76.009193 111.755806,76.197014 111.741470,76.668098 
	C111.635292,77.126503 111.560570,77.301628 111.308762,77.700836 
	C110.441689,78.232468 110.071022,78.689240 110.426117,79.725540 
	C110.676674,80.083168 110.907837,80.191383 111.059906,80.674210 
	C110.980820,81.048813 110.965530,80.976326 110.999908,80.962524 
	C110.348785,81.786362 111.011086,82.397751 111.543320,83.323273 
	C112.514488,84.886604 112.697380,86.341324 112.878578,88.119064 
	C113.049171,88.955299 113.094765,89.500061 113.084839,90.316849 
	C113.040344,91.660637 112.195686,92.192894 111.292084,93.063271 
	C109.633461,93.387260 108.867126,92.476486 107.918243,91.284744 
z"/>
<path fill="#2C4051" opacity="1.000000" stroke="none" 
	d="
M23.202759,128.939957 
	C23.038540,132.339890 23.938238,135.562897 21.392782,137.904526 
	C19.093016,140.020142 16.337683,140.259186 13.472937,139.105057 
	C12.553603,138.734680 11.502408,138.269516 11.946383,136.997131 
	C12.306148,135.966080 12.598071,134.752396 14.348894,135.415039 
	C18.787298,137.094864 19.043764,134.150833 19.032162,130.995392 
	C19.022367,128.331543 19.057219,125.667313 19.023527,123.003860 
	C19.004847,121.526978 19.205078,120.394547 21.104630,120.371445 
	C23.034048,120.347992 23.214117,121.521912 23.200666,122.976448 
	C23.183731,124.807686 23.200340,126.639252 23.202759,128.939957 
z"/>
<path fill="#DDDEDF" opacity="1.000000" stroke="none" 
	d="
M64.394852,73.743225 
	C63.687119,74.031044 63.195408,74.024391 62.334915,74.012833 
	C61.575447,74.373444 61.115032,74.519188 60.266953,74.241470 
	C59.948723,74.036842 59.997047,73.999649 59.984962,74.027634 
	C59.222088,73.416801 58.313190,72.888466 58.432247,71.349960 
	C58.643158,70.767738 58.755989,70.545952 59.189777,70.133629 
	C59.317833,69.550911 59.124928,69.158730 58.953556,68.586586 
	C59.147030,68.025703 59.390583,67.699989 59.975491,67.275253 
	C60.754765,66.846298 61.314865,66.651169 61.987198,66.089340 
	C62.430195,65.609459 62.653774,65.313766 62.979740,64.756844 
	C63.247936,64.178612 63.366558,63.836830 63.470470,63.213364 
	C63.447666,62.573463 63.369995,62.212502 63.143421,61.589592 
	C62.850639,60.955162 62.696194,60.580757 62.500114,59.884991 
	C62.513283,59.364998 62.582962,59.160156 62.916199,58.761501 
	C63.620140,58.527092 64.061455,58.509853 64.841476,58.513184 
	C65.636841,58.504227 66.090736,58.458588 66.892822,58.367424 
	C67.466248,58.433971 67.688522,58.514843 68.171303,58.840172 
	C68.661575,59.509033 68.801857,59.962051 68.842995,60.797993 
	C68.729858,61.376869 68.638794,61.597469 68.567299,62.175518 
	C67.504517,66.260063 64.561371,69.309380 64.394852,73.743225 
z"/>
<path fill="#BCBFC2" opacity="1.000000" stroke="none" 
	d="
M84.143150,59.273045 
	C80.710243,60.175831 77.125397,59.358189 73.388817,60.868732 
	C72.826599,60.741394 72.675125,60.563057 72.370476,60.067192 
	C72.113747,59.286354 72.084526,58.817841 72.200272,57.999828 
	C72.395355,57.448128 72.509186,57.241470 72.913109,56.834061 
	C73.432671,56.683060 73.662125,56.732811 74.229622,56.881321 
	C78.547661,53.702446 81.553795,55.271080 84.143150,59.273045 
z"/>
<path fill="#606D79" opacity="1.000000" stroke="none" 
	d="
M104.205063,109.088249 
	C103.562088,109.133759 103.268196,109.244705 102.927856,109.753586 
	C102.462013,110.337189 102.031311,110.473885 101.226013,110.226791 
	C100.919098,110.038544 100.459175,110.007019 100.228676,110.007065 
	C99.106125,109.970879 98.219620,109.918892 97.700981,108.845192 
	C97.818138,108.534531 97.637962,108.300079 97.502701,108.240387 
	C96.656929,108.014320 96.427361,107.550774 96.561188,106.867729 
	C96.752937,105.889015 97.404839,105.759079 98.531586,106.104256 
	C99.070511,106.470612 99.287781,106.723801 99.523834,106.957077 
	C99.669258,107.100784 99.826752,107.137581 99.925903,107.138695 
	C100.592529,107.146179 100.539452,106.499512 100.190079,107.067307 
	C100.188850,107.069283 100.028839,107.023605 99.608902,106.619263 
	C99.550713,106.089622 99.593620,105.870979 99.814880,105.364174 
	C101.325546,103.042236 103.382980,102.815819 105.898483,102.880226 
	C106.483971,102.963264 106.715492,103.014923 107.273651,103.206512 
	C107.781509,103.497742 107.962738,103.649025 108.236649,104.140884 
	C108.167221,104.926537 107.925697,105.321922 107.300858,105.854591 
	C106.895638,106.887253 107.414658,108.038086 105.493668,108.065445 
	C104.964851,108.332413 104.774094,108.679024 104.205063,109.088249 
z"/>
<path fill="#737D86" opacity="1.000000" stroke="none" 
	d="
M61.315865,59.169952 
	C62.081585,59.097221 62.424015,59.300240 63.208714,59.877342 
	C64.111359,60.833328 65.373001,61.145454 64.319611,62.672142 
	C63.968765,63.542583 63.550289,63.903584 62.829025,64.277863 
	C62.163605,64.587646 62.386162,63.535461 62.078667,64.182556 
	C62.247807,64.536896 62.218887,64.715485 62.034027,65.121796 
	C61.465359,65.738899 60.988674,66.034111 60.219585,66.394318 
	C59.760540,66.499718 59.569714,66.504509 59.120872,66.385162 
	C56.376251,63.441753 55.969486,61.230888 60.764252,60.246880 
	C60.947235,59.824352 60.919899,59.635029 61.315865,59.169952 
z"/>
<path fill="#CACCCD" opacity="1.000000" stroke="none" 
	d="
M60.203506,87.813980 
	C59.314346,88.306602 58.761631,88.675148 59.000404,89.759720 
	C58.637360,90.564102 58.030067,90.634094 57.165562,90.865143 
	C56.915997,91.043274 56.445873,91.062859 56.231468,91.037842 
	C55.291050,87.353378 53.649632,83.561165 57.729523,80.311531 
	C58.159870,80.096588 58.392433,80.140228 58.911175,80.393784 
	C59.571014,81.203171 60.050941,81.738213 60.143406,82.735481 
	C59.990784,83.055305 59.982765,82.992844 60.013889,82.988083 
	C59.505363,83.545319 59.257504,84.204590 59.472801,85.244171 
	C59.762753,85.825928 59.945221,86.156487 60.247330,86.758171 
	C60.393940,87.221130 60.410172,87.418915 60.203506,87.813980 
z"/>
<path fill="#DDDEDF" opacity="1.000000" stroke="none" 
	d="
M100.177444,105.373993 
	C99.872093,105.897408 99.805672,106.117760 99.812431,106.675491 
	C99.736435,107.142303 99.587250,107.271744 99.220779,107.199783 
	C98.424477,107.298302 96.953285,105.462158 97.285950,107.965240 
	C95.942368,109.288132 95.190506,113.079308 92.277245,109.187599 
	C90.983238,107.713669 91.524742,106.662338 92.746429,105.411102 
	C95.055832,104.712051 97.091042,104.271500 99.507111,103.777466 
	C100.328812,104.069115 100.504906,104.518120 100.177444,105.373993 
z"/>
<path fill="#DDDEDF" opacity="1.000000" stroke="none" 
	d="
M112.896912,66.756783 
	C113.011841,66.449509 112.944855,66.220497 113.009491,66.119888 
	C113.760849,65.921478 114.447556,65.823669 115.628075,65.914780 
	C117.564247,68.886147 116.690826,71.699814 116.137360,74.826050 
	C115.367065,75.601265 114.695618,75.548859 113.790489,74.870941 
	C113.367180,74.171371 113.256218,73.722954 113.303558,72.922653 
	C113.192085,72.065025 114.663635,72.205559 113.652870,71.150024 
	C113.258774,70.497505 113.110367,70.088356 112.983719,69.334717 
	C112.893219,68.360275 112.648361,67.729385 112.896912,66.756783 
z"/>
<path fill="#BCBFC2" opacity="1.000000" stroke="none" 
	d="
M107.536896,91.179459 
	C108.899681,90.986664 109.972221,91.164536 110.545387,92.609207 
	C110.744759,93.077606 111.020882,93.212875 111.149315,93.785065 
	C111.487373,94.818100 111.973122,95.414200 112.233658,96.223999 
	C112.112122,96.708618 112.215790,96.979553 112.147713,97.650299 
	C111.975967,98.050102 112.006104,97.986992 112.038300,98.000648 
	C111.928497,98.153214 111.786499,98.292130 111.345154,98.445801 
	C110.653931,98.365593 110.274948,98.233093 109.631882,97.937759 
	C109.181236,97.702072 109.005531,97.597649 108.587784,97.302353 
	C108.052559,96.819046 107.804916,96.492096 107.556931,95.826515 
	C107.515251,94.910400 107.522377,94.298500 107.362701,93.405182 
	C107.273537,92.542618 107.298065,91.962486 107.536896,91.179459 
z"/>
<path fill="#F5F5F6" opacity="1.000000" stroke="none" 
	d="
M113.836334,74.066551 
	C114.523285,74.645798 115.015350,74.838943 115.773483,75.088173 
	C116.010979,75.934837 115.982407,76.725426 115.916061,77.912445 
	C115.399269,78.704491 115.512741,79.307610 115.090324,79.911591 
	C114.829628,80.008842 114.599884,80.057060 114.482803,80.065292 
	C113.563095,79.529724 113.149910,78.516983 111.790390,78.108887 
	C111.441940,77.993568 111.271370,78.023544 111.201523,77.974228 
	C111.160095,77.726822 111.188522,77.528732 111.258850,76.785309 
	C111.022217,75.776146 110.743668,75.312317 110.275047,74.653488 
	C110.219734,73.851669 110.583237,73.452164 111.600861,73.192673 
	C112.618149,73.160362 113.155792,73.344597 113.836334,74.066551 
z"/>
<path fill="#CACCCD" opacity="1.000000" stroke="none" 
	d="
M92.591522,105.096863 
	C92.701027,106.210106 92.381424,107.267624 92.027512,108.657028 
	C89.752945,108.830070 87.990761,107.961617 87.063416,105.394180 
	C88.705513,105.055405 90.433968,105.048271 92.591522,105.096863 
z"/>
<path fill="#BCBFC2" opacity="1.000000" stroke="none" 
	d="
M57.973198,98.046188 
	C59.204861,98.589432 59.812820,99.310371 59.905853,100.727188 
	C59.533943,101.491043 59.396717,102.009972 59.146423,102.773094 
	C58.999252,103.002220 59.009472,102.991386 59.017281,102.992950 
	C58.614491,103.383705 58.131222,103.525291 57.238274,103.210281 
	C54.173172,102.580025 56.209835,100.500023 55.812191,99.168335 
	C56.455868,98.611343 56.966385,98.314285 57.973198,98.046188 
z"/>
<path fill="#737D86" opacity="1.000000" stroke="none" 
	d="
M111.915855,83.306198 
	C113.362373,83.706467 118.062851,82.225792 114.276718,86.667244 
	C112.670052,86.351128 112.073334,85.150848 111.915855,83.306198 
z"/>
<path fill="#737D86" opacity="1.000000" stroke="none" 
	d="
M58.703136,71.018265 
	C58.647053,72.196442 59.497715,72.741402 60.034584,73.719818 
	C58.575390,74.146393 57.077030,73.922157 56.495811,72.644966 
	C55.947529,71.440147 57.277714,71.186638 58.703136,71.018265 
z"/>
<path fill="#66727D" opacity="1.000000" stroke="none" 
	d="
M110.981781,101.478195 
	C111.184334,103.025574 110.660553,103.300697 109.025528,102.953667 
	C108.171455,102.692787 108.003624,102.567863 107.648033,102.192322 
	C107.005234,101.007233 106.765266,100.008781 106.587219,98.689514 
	C106.702103,97.986237 106.931854,97.681526 107.589371,97.423691 
	C108.064819,97.374031 108.255997,97.391975 108.712265,97.509209 
	C109.139870,97.698769 109.302391,97.789040 109.684265,98.042969 
	C110.022079,98.340424 110.140549,98.474213 110.386848,98.838402 
	C110.628433,99.390289 110.717720,99.718246 110.819611,100.292923 
	C110.863747,100.531303 110.952057,101.002876 110.981781,101.478195 
z"/>
<path fill="#606D79" opacity="1.000000" stroke="none" 
	d="
M57.181770,91.149918 
	C57.108574,90.300056 57.577648,89.957329 58.680214,90.012756 
	C61.875000,89.285446 60.868649,91.980293 61.406281,93.268753 
	C60.334023,93.586853 59.828243,93.189110 59.156540,92.391747 
	C58.411785,91.871490 57.929665,91.564026 57.181770,91.149918 
z"/>
<path fill="#606D79" opacity="1.000000" stroke="none" 
	d="
M62.532860,58.936684 
	C61.739159,58.894199 61.393738,58.943264 61.303036,58.956223 
	C61.529831,55.969410 63.236664,57.206341 65.024918,57.702354 
	C65.428001,57.902420 65.543083,58.213490 66.049355,58.831951 
	C65.402550,59.085953 64.364555,59.032558 62.532860,58.936684 
z"/>
<path fill="#737D86" opacity="1.000000" stroke="none" 
	d="
M59.323631,104.946121 
	C62.112446,104.123398 61.988808,105.835594 61.711533,108.149323 
	C60.185310,108.784409 60.406624,107.536461 60.130257,106.289131 
	C59.784836,105.795204 59.567436,105.592964 59.323631,104.946121 
z"/>
<path fill="#BCBFC2" opacity="1.000000" stroke="none" 
	d="
M112.010231,82.932678 
	C112.656784,83.970871 113.289925,85.038750 114.031937,86.511040 
	C113.855820,87.281075 113.570839,87.646683 113.144714,88.211418 
	C111.702171,87.191513 110.525200,85.908516 110.807892,83.554085 
	C111.074463,82.972992 111.233902,82.768150 111.727615,82.763000 
	C112.061890,82.962685 111.996819,82.962364 112.010231,82.932678 
z"/>
<path fill="#66727D" opacity="1.000000" stroke="none" 
	d="
M111.389580,94.203232 
	C110.969688,93.985016 110.937752,93.748047 110.687225,93.226707 
	C110.688026,91.866608 111.255768,91.028641 112.604874,90.511566 
	C113.166664,90.689301 113.303993,90.789719 113.685074,90.965706 
	C114.350998,91.399483 114.500381,91.848457 114.088127,92.635300 
	C113.799255,92.882393 113.374168,92.935143 113.208771,92.950378 
	C113.145905,93.916595 112.850571,94.454369 111.389580,94.203232 
z"/>
<path fill="#F5F5F6" opacity="1.000000" stroke="none" 
	d="
M58.901348,81.195496 
	C58.413509,80.778770 58.361958,80.608803 58.118858,80.245895 
	C57.919430,79.566727 57.911545,79.080513 57.994591,78.235291 
	C58.085526,77.876297 58.467064,77.761246 58.662621,77.724670 
	C59.435837,78.460915 60.797054,78.816986 60.095909,80.447601 
	C59.772785,80.935028 59.555214,81.188644 58.901348,81.195496 
z"/>
<path fill="#606D79" opacity="1.000000" stroke="none" 
	d="
M74.356873,56.800545 
	C74.288475,57.061199 74.009285,57.142315 73.294518,57.244774 
	C72.616600,57.588474 72.376823,57.912731 71.591705,57.692810 
	C71.934074,56.122025 72.727226,54.526695 74.356873,56.800545 
z"/>
<path fill="#DDDEDF" opacity="1.000000" stroke="none" 
	d="
M97.557976,108.841370 
	C98.500610,108.830154 99.183083,109.125778 99.931870,109.714256 
	C98.488304,111.637848 97.538086,111.509033 97.557976,108.841370 
z"/>
<path fill="#CACCCD" opacity="1.000000" stroke="none" 
	d="
M59.257607,104.479950 
	C59.439503,104.739159 59.581776,104.976814 59.863144,105.605957 
	C59.095146,105.987053 58.344448,107.259705 57.427860,106.438354 
	C57.187843,106.223282 57.534946,105.353020 57.752930,104.523376 
	C58.130024,104.050270 58.366604,103.837440 58.826805,104.046318 
	C59.050430,104.468033 59.217983,104.458389 59.257607,104.479950 
z"/>
<path fill="#737D86" opacity="1.000000" stroke="none" 
	d="
M110.080261,100.839798 
	C109.966576,100.224472 109.995636,99.886269 110.042152,99.294067 
	C110.552505,98.627983 111.109688,98.504036 112.139046,98.857994 
	C112.547173,99.048752 112.771538,99.440453 112.703293,99.655594 
	C112.552773,100.402504 112.532120,100.936668 112.510696,101.870728 
	C112.207878,102.219864 111.967278,102.171494 111.369095,102.038315 
	C111.011513,101.953514 111.058495,101.995529 111.050491,102.026016 
	C110.767647,101.744774 110.494415,101.431648 110.080261,100.839798 
z"/>
<path fill="#66727D" opacity="1.000000" stroke="none" 
	d="
M112.696648,65.623215 
	C111.664009,64.812881 111.182686,63.440449 112.641136,61.652752 
	C113.884338,62.644455 113.563026,63.938580 113.203491,65.611763 
	C112.878166,65.720482 112.717339,65.439056 112.696648,65.623215 
z"/>
<path fill="#F5F5F6" opacity="1.000000" stroke="none" 
	d="
M58.469391,97.900925 
	C57.911377,98.314461 57.408428,98.648567 56.453003,98.992950 
	C56.081207,98.054451 56.347130,97.242638 57.780510,97.005844 
	C58.332699,96.841644 58.551140,96.718887 58.875164,96.956856 
	C58.857189,97.512146 58.705090,97.680122 58.469391,97.900925 
z"/>
<path fill="#CACCCD" opacity="1.000000" stroke="none" 
	d="
M58.715096,92.575333 
	C59.473476,92.454353 60.053040,92.729767 60.867798,93.240677 
	C61.088303,94.473320 60.740929,95.192307 59.297493,95.363861 
	C58.833557,94.636719 58.684917,93.804214 58.715096,92.575333 
z"/>
<path fill="#CACCCD" opacity="1.000000" stroke="none" 
	d="
M58.737762,66.631012 
	C58.862854,66.261024 59.341564,66.247444 59.581005,66.249550 
	C61.214607,64.978722 61.124569,66.400948 61.233971,67.551636 
	C60.592930,68.079414 60.133987,68.185898 59.325066,68.349503 
	C58.854282,67.938087 58.733475,67.469543 58.737762,66.631012 
z"/>
<path fill="#737D86" opacity="1.000000" stroke="none" 
	d="
M70.732208,56.949173 
	C71.044212,57.147041 70.996147,57.618233 70.962372,57.852631 
	C70.790756,58.206558 70.652908,58.326088 70.250229,58.519478 
	C69.801437,58.584290 69.617485,58.575249 69.172440,58.472317 
	C68.766754,58.262360 68.622162,58.146286 68.269104,57.526047 
	C68.520645,54.084347 69.592033,56.478256 70.732208,56.949173 
z"/>
<path fill="#BCBFC2" opacity="1.000000" stroke="none" 
	d="
M111.524307,59.667667 
	C111.908813,58.816360 112.324234,58.250320 112.909691,57.376118 
	C114.275612,57.684551 113.804695,58.482586 113.217880,59.537529 
	C112.954231,60.003117 112.793434,60.213223 112.288651,60.225418 
	C111.944664,60.027512 111.555214,59.952934 111.524307,59.667667 
z"/>
<path fill="#66727D" opacity="1.000000" stroke="none" 
	d="
M104.169876,109.525208 
	C104.200409,108.824303 104.476997,108.446121 104.898613,107.997086 
	C105.005508,108.622688 107.041260,109.996544 104.169876,109.525208 
z"/>
<path fill="#DDDEDF" opacity="1.000000" stroke="none" 
	d="
M114.141571,92.902542 
	C113.848511,92.474373 113.897758,92.066345 113.937920,91.349792 
	C114.368988,91.003830 114.809151,90.966393 115.689468,91.019424 
	C116.008430,92.102173 115.622482,92.854080 114.141571,92.902542 
z"/>
<path fill="#66727D" opacity="1.000000" stroke="none" 
	d="
M114.973938,80.154877 
	C115.078903,79.576660 115.328178,79.144478 115.727867,78.510590 
	C115.110001,78.776421 116.742973,80.160141 114.973938,80.154877 
z"/>
<path fill="#66727D" opacity="1.000000" stroke="none" 
	d="
M111.632812,78.320160 
	C112.805222,77.420677 113.640694,77.873856 114.171318,79.685547 
	C113.518372,79.597931 112.671021,79.122345 111.632812,78.320160 
z"/>
<path fill="#CACCCD" opacity="1.000000" stroke="none" 
	d="
M112.721008,102.236832 
	C112.406227,101.734840 112.363976,101.201447 112.478378,100.269394 
	C113.041985,100.604828 114.766823,101.136559 112.721008,102.236832 
z"/>
<path fill="#606D79" opacity="1.000000" stroke="none" 
	d="
M112.034332,82.656647 
	C111.873695,83.014221 111.685493,83.065750 111.206161,83.147568 
	C110.040504,82.693436 109.891129,82.065849 110.787323,81.114647 
	C111.358444,81.416023 111.682610,81.883324 112.034332,82.656647 
z"/>
<path fill="#606D79" opacity="1.000000" stroke="none" 
	d="
M68.259964,59.658028 
	C67.645538,59.730686 67.400772,59.627537 66.796341,59.352982 
	C66.428688,58.988289 66.420692,58.795006 66.439171,58.313843 
	C66.429741,57.837116 66.393852,57.648273 66.075172,57.403114 
	C66.159767,57.218643 66.527138,57.090485 67.477577,56.992107 
	C68.060638,57.021885 68.026260,56.967403 67.994202,56.970539 
	C68.175697,57.231808 68.407867,57.471943 68.840088,57.867470 
	C69.021545,58.040836 69.016098,57.986954 68.989151,57.989582 
	C69.155945,58.556873 69.045067,59.053543 68.259964,59.658028 
z"/>
<path fill="#737D86" opacity="1.000000" stroke="none" 
	d="
M59.902176,74.414719 
	C60.391422,73.997650 60.834122,73.958450 61.621475,73.963593 
	C61.971870,74.929031 61.529331,75.334839 60.284180,75.368279 
	C59.925732,75.295380 59.890682,75.043991 59.902176,74.414719 
z"/>
<path fill="#384A5A" opacity="1.000000" stroke="none" 
	d="
M108.244858,105.121689 
	C107.894623,104.932213 108.140556,104.778786 108.095718,104.640961 
	C107.899452,104.286743 107.748024,104.070358 107.667206,103.463577 
	C107.947189,102.910812 108.156548,102.748428 108.683662,102.824730 
	C109.001427,103.063408 109.013535,102.995361 108.981003,102.984406 
	C108.933556,103.153992 108.918633,103.334549 109.103355,103.699478 
	C109.301674,104.140541 109.300346,104.397224 109.490494,104.987961 
	C109.681961,105.322006 109.381088,105.236336 109.228134,105.203598 
	C108.915146,105.217628 108.755112,105.264397 108.244858,105.121689 
z"/>
<path fill="#737D86" opacity="1.000000" stroke="none" 
	d="
M101.100739,110.259567 
	C101.340004,110.018860 101.760918,109.999176 102.497711,109.975670 
	C102.691460,111.310028 101.955772,110.801559 101.100739,110.259567 
z"/>
<path fill="#66727D" opacity="1.000000" stroke="none" 
	d="
M59.105446,104.098595 
	C58.859688,104.422127 58.668945,104.376228 58.185822,104.296715 
	C57.591805,104.031891 57.290157,103.800674 56.944786,103.285034 
	C57.371384,103.005119 57.841705,103.009613 58.668556,103.004311 
	C59.070213,103.239388 59.115334,103.484276 59.105446,104.098595 
z"/>
<path fill="#606D79" opacity="1.000000" stroke="none" 
	d="
M111.997665,60.344368 
	C112.137123,59.975430 112.329575,59.923351 112.818520,59.832146 
	C113.764175,60.164211 113.996841,60.674809 113.326355,61.449989 
	C112.687775,61.233341 112.369225,60.947281 111.997665,60.344368 
z"/>
<path fill="#606D79" opacity="1.000000" stroke="none" 
	d="
M59.326263,97.239410 
	C58.980751,97.317574 58.584564,97.050018 58.349407,97.007210 
	C58.182819,96.519295 58.251389,96.074188 58.656494,95.547630 
	C59.345455,95.980675 60.240288,96.277985 59.326263,97.239410 
z"/>
<path fill="#66727D" opacity="1.000000" stroke="none" 
	d="
M112.574844,98.722473 
	C111.991821,99.017677 111.436478,98.986603 110.470367,98.997795 
	C110.059608,99.040070 110.005562,98.982887 109.981911,98.951447 
	C109.841461,98.746346 109.724655,98.572670 109.745796,98.116867 
	C110.078819,97.757713 110.273903,97.680687 110.705185,97.811478 
	C111.129440,97.993408 111.317497,97.967529 111.788025,97.977982 
	C112.247833,98.141602 112.425171,98.268890 112.574844,98.722473 
z"/>
<path fill="#CACCCD" opacity="1.000000" stroke="none" 
	d="
M66.140495,57.681084 
	C66.002808,57.686226 66.203140,57.943787 66.420074,58.691460 
	C66.436676,59.181568 66.410820,59.122028 66.425682,59.130688 
	C66.131653,58.972645 65.822754,58.805943 65.413391,58.115295 
	C65.312912,57.591347 65.513733,57.444195 65.635544,57.469864 
	C65.997742,57.641521 66.238129,57.787510 66.140495,57.681084 
z"/>
<path fill="#384A5A" opacity="1.000000" stroke="none" 
	d="
M107.313370,106.386078 
	C107.248779,105.785088 107.487900,105.520645 107.810822,105.094208 
	C107.894623,104.932213 107.937057,104.951126 107.954926,104.966171 
	C108.110870,105.145981 108.248932,105.310745 108.592567,105.723938 
	C108.734245,106.741615 108.342773,106.995201 107.313370,106.386078 
z"/>
<path fill="#BCBFC2" opacity="1.000000" stroke="none" 
	d="
M108.378006,108.370514 
	C108.480522,108.277802 108.537392,108.595703 108.537392,108.595703 
	C108.537392,108.595703 108.275482,108.463219 108.378006,108.370514 
z"/>
<path fill="#DDDEDF" opacity="1.000000" stroke="none" 
	d="
M115.908813,65.893280 
	C116.049484,65.708351 116.354568,64.925606 116.264420,66.002609 
	C116.121880,66.103699 115.976830,65.966400 115.908813,65.893280 
z"/>
<path fill="#DDDEDF" opacity="1.000000" stroke="none" 
	d="
M65.917526,57.394051 
	C65.802467,57.428661 65.825523,57.475071 65.791435,57.485298 
	C65.757347,57.495529 65.846725,57.375843 65.819557,57.361320 
	C65.792389,57.346798 66.032585,57.359444 65.917526,57.394051 
z"/>
<path fill="#66727D" opacity="1.000000" stroke="none" 
	d="
M111.414398,80.970337 
	C110.934685,80.848335 110.888557,80.647865 110.643967,80.211166 
	C111.578979,79.261917 112.040863,79.576134 111.414398,80.970337 
z"/>
<path fill="#606D79" opacity="1.000000" stroke="none" 
	d="
M59.604801,75.764557 
	C60.229088,75.971886 61.322784,76.382370 59.824188,77.051239 
	C59.383129,76.707855 59.306400,76.391968 59.604801,75.764557 
z"/>
<path fill="#DDDEDF" opacity="1.000000" stroke="none" 
	d="
M116.414444,62.568428 
	C116.352341,62.479961 116.589745,62.442028 116.589745,62.442028 
	C116.589745,62.442028 116.476547,62.656898 116.414444,62.568428 
z"/>
<path fill="#DDDEDF" opacity="1.000000" stroke="none" 
	d="
M112.842407,66.061134 
	C112.836792,66.088791 112.871155,65.898727 112.955078,65.950317 
	C113.039001,66.001915 112.993217,65.974915 112.975960,65.993004 
	C112.958702,66.011093 112.848030,66.033478 112.842407,66.061134 
z"/>
<path fill="#DDDEDF" opacity="1.000000" stroke="none" 
	d="
M115.963478,90.951050 
	C116.080536,90.815666 116.300339,90.051117 116.264481,91.020432 
	C116.129631,91.109909 116.015892,91.007019 115.963478,90.951050 
z"/>
<path fill="#66727D" opacity="1.000000" stroke="none" 
	d="
M112.015900,97.786514 
	C112.092033,97.783615 112.208092,97.517120 112.166306,96.844162 
	C112.945854,96.759186 112.228355,97.152954 112.015900,97.786514 
z"/>
<path fill="#BCBFC2" opacity="1.000000" stroke="none" 
	d="
M108.892960,105.860680 
	C108.556381,105.893936 108.314621,105.815506 108.022835,105.359138 
	C108.170448,104.931908 108.368095,104.882607 108.820457,105.002090 
	C109.055748,105.365044 109.026619,105.557747 108.892960,105.860680 
z"/>
<path fill="#F5F5F6" opacity="1.000000" stroke="none" 
	d="
M57.930634,78.038223 
	C57.781162,77.890823 57.688965,77.695152 57.596764,77.499474 
	C57.710094,77.530777 57.823421,77.562080 58.011139,77.734840 
	C58.085526,77.876297 57.987907,77.989944 57.930634,78.038223 
z"/>
<path fill="#CACCCD" opacity="1.000000" stroke="none" 
	d="
M55.990662,90.988876 
	C55.893356,91.027740 55.803940,91.075935 55.865795,91.068474 
	C56.017067,91.012817 55.998547,90.998207 55.990662,90.988876 
z"/>
<path fill="#BCBFC2" opacity="1.000000" stroke="none" 
	d="
M109.933083,105.181229 
	C109.685112,105.064835 109.688255,104.807663 109.497200,104.217178 
	C110.010025,103.954498 110.303421,104.340286 109.933083,105.181229 
z"/>
<path fill="#606D79" opacity="1.000000" stroke="none" 
	d="
M59.433712,70.850601 
	C59.212589,71.102867 58.999573,71.003105 58.886292,71.028488 
	C58.087906,70.716812 58.045155,70.316307 59.082489,69.897255 
	C59.558769,70.161507 59.606804,70.379921 59.433712,70.850601 
z"/>
<path fill="#CACCCD" opacity="1.000000" stroke="none" 
	d="
M67.897324,60.004913 
	C68.195793,59.455776 68.501266,59.077721 68.884476,58.345940 
	C69.398903,58.009647 69.835617,58.027084 70.600464,58.065773 
	C70.928604,58.087025 70.967865,58.068012 70.959061,58.049515 
	C71.088181,58.139404 71.226105,58.247795 71.533211,58.558918 
	C71.797951,58.910324 71.893501,59.058990 72.191994,59.699776 
	C72.384270,60.369804 72.373589,60.547707 72.203873,60.940495 
	C71.169495,61.736225 70.294151,62.317070 69.072922,62.688885 
	C68.779465,62.046452 68.642387,61.678696 68.153694,61.118576 
	C67.938408,60.638950 67.917953,60.407776 67.897324,60.004913 
z"/>
<path fill="#BCBFC2" opacity="1.000000" stroke="none" 
	d="
M68.070129,61.304367 
	C68.215218,61.195190 68.464760,61.520863 68.720673,62.163193 
	C68.727051,62.479851 68.636414,62.451042 68.611633,62.492004 
	C68.449432,62.268383 68.312012,62.003799 68.070129,61.304367 
z"/>
<path fill="#DDDEDF" opacity="1.000000" stroke="none" 
	d="
M72.287338,61.132881 
	C72.044273,60.910927 72.043716,60.666473 72.099487,60.059700 
	C72.155815,59.697380 72.532524,59.505589 72.727844,59.586349 
	C72.939651,59.875557 72.956131,60.084007 72.975349,60.606094 
	C72.978081,60.919735 72.529846,61.110382 72.287338,61.132881 
z"/>
<path fill="#EBECED" opacity="1.000000" stroke="none" 
	d="
M100.309006,105.627731 
	C99.937721,105.242867 99.936928,104.808678 99.912064,104.049225 
	C101.034851,102.814316 102.181717,101.904671 103.631805,100.896553 
	C105.223473,100.353172 105.757233,101.423309 106.680557,102.325775 
	C106.926605,102.771217 106.991325,102.966278 106.931404,103.443283 
	C104.862778,104.668396 102.033875,102.685715 100.309006,105.627731 
z"/>
<path fill="#FEFEFE" opacity="1.000000" stroke="none" 
	d="
M106.656647,97.763161 
	C107.666809,98.972435 107.565071,100.034058 107.268280,101.472641 
	C107.235451,102.010941 107.133064,102.195389 106.714737,102.361252 
	C105.365128,101.726021 105.279655,100.640099 105.044861,99.308945 
	C104.961021,98.634598 105.058777,98.330963 105.561539,97.992844 
	C105.991661,97.782356 106.189957,97.662102 106.656647,97.763161 
z"/>
<path fill="#EBECED" opacity="1.000000" stroke="none" 
	d="
M107.294556,97.919106 
	C106.735771,97.979652 106.546524,97.974831 106.075333,97.936310 
	C106.207611,96.537163 106.621849,95.171715 107.142548,93.464508 
	C107.505280,93.894478 107.761543,94.666206 108.037567,95.756165 
	C108.215187,96.234848 108.373055,96.395302 108.760132,96.803673 
	C108.989334,97.051598 109.000778,96.997780 108.974258,97.005096 
	C109.108017,97.178665 109.268295,97.344910 109.282776,97.825356 
	C108.646004,98.044289 108.155045,97.949013 107.294556,97.919106 
z"/>
<path fill="#606D79" opacity="1.000000" stroke="none" 
	d="
M104.771805,99.108032 
	C106.524315,99.392548 105.438286,101.207634 106.927200,101.789215 
	C107.346558,101.965370 107.417862,102.149475 107.478836,102.630402 
	C107.417381,103.119392 107.366264,103.311562 107.053436,103.646851 
	C106.003326,102.960587 105.214920,102.131210 104.180756,101.049957 
	C104.125732,100.272743 104.316452,99.747414 104.771805,99.108032 
z"/>
<path fill="#EFEFF0" opacity="1.000000" stroke="none" 
	d="
M52.833557,125.214592 
	C53.485031,123.978279 54.334225,124.097580 55.143238,124.086540 
	C57.003529,124.061142 59.130981,124.004578 59.311951,126.434235 
	C59.469822,128.553787 57.684231,128.841049 55.893547,129.040573 
	C53.142014,129.347137 52.352551,128.122955 52.833557,125.214592 
z"/>
<path fill="#EBECED" opacity="1.000000" stroke="none" 
	d="
M156.183792,124.351837 
	C157.870636,125.630142 158.413773,126.926994 156.930984,128.200851 
	C155.288132,129.612213 153.199310,129.365524 151.443924,128.671249 
	C150.314636,128.224609 150.672302,126.539772 150.947510,125.548988 
	C151.759888,122.624329 154.154877,124.575668 156.183792,124.351837 
z"/>
<path fill="#F5F5F6" opacity="1.000000" stroke="none" 
	d="
M30.328329,128.447311 
	C31.656509,124.413307 34.305073,123.062210 37.811508,124.250252 
	C41.251186,125.415665 41.826584,128.418335 41.159145,131.608627 
	C40.529629,134.617630 38.447113,136.243820 35.413799,135.912720 
	C31.299932,135.463684 30.001907,132.628235 30.328329,128.447311 
z"/>
<path fill="#DDDEDF" opacity="1.000000" stroke="none" 
	d="
M173.860413,132.656982 
	C165.286148,131.405548 174.428787,127.761116 172.420639,125.621246 
	C173.498245,127.862053 176.385239,129.622253 173.860413,132.656982 
z"/>
<path fill="#606D79" opacity="1.000000" stroke="none" 
	d="
M60.362396,88.025757 
	C59.926582,87.763245 59.872559,87.515228 59.590820,87.044334 
	C56.700733,85.595978 57.392700,84.332016 59.682449,83.018608 
	C60.390778,84.653389 61.920013,86.159821 60.362396,88.025757 
z"/>
<path fill="#606D79" opacity="1.000000" stroke="none" 
	d="
M59.311558,102.979767 
	C59.778568,102.498146 57.150951,101.345024 59.647575,101.101105 
	C59.735271,101.695656 62.242413,102.754684 59.311558,102.979767 
z"/>
<path fill="#606D79" opacity="1.000000" stroke="none" 
	d="
M58.704468,81.195694 
	C58.702984,80.811165 58.940899,80.673592 59.584591,80.608719 
	C60.769157,81.232704 61.129898,81.897812 60.280807,82.934326 
	C59.641811,82.517754 59.292839,81.980209 58.704468,81.195694 
z"/>
<path fill="#CACCCD" opacity="1.000000" stroke="none" 
	d="
M113.754372,69.060211 
	C114.091942,69.880028 114.145065,70.251366 114.277969,70.892380 
	C114.199669,71.252213 114.041573,71.342369 113.632019,71.523766 
	C113.042976,71.600960 112.710556,71.554298 112.157875,71.521011 
	C111.754211,71.405174 111.578827,71.225479 111.199158,70.729355 
	C110.878540,70.120323 110.762192,69.827736 110.991989,69.213791 
	C111.338120,68.892441 111.458107,68.896164 111.463486,68.955948 
	C112.078270,68.595734 112.745415,68.461670 113.754372,69.060211 
z"/>
<path fill="#737D86" opacity="1.000000" stroke="none" 
	d="
M111.648422,71.690125 
	C112.457268,71.354820 112.984932,71.124763 113.952850,71.007179 
	C114.393105,71.119652 113.909111,71.172768 113.909111,71.172768 
	C113.909111,71.172768 114.186226,71.573044 114.351685,71.391144 
	C114.389145,71.925491 114.261147,72.641739 114.082184,73.905319 
	C113.361656,74.408112 112.692101,74.363586 111.530838,74.431610 
	C111.466537,73.900261 111.071007,73.291962 110.885712,72.349312 
	C110.997955,71.949921 111.182602,71.872650 111.648422,71.690125 
z"/>
<path fill="#CACCCD" opacity="1.000000" stroke="none" 
	d="
M110.552719,72.242020 
	C111.120621,72.675659 111.427933,73.324127 111.387184,74.258377 
	C110.843605,74.639755 110.637299,74.675392 110.252594,74.554779 
	C110.154022,73.791275 110.223068,73.124069 110.552719,72.242020 
z"/>
<path fill="#737D86" opacity="1.000000" stroke="none" 
	d="
M114.067932,69.085251 
	C113.479828,69.326614 112.920830,69.144539 111.915344,68.989098 
	C112.015411,68.440079 111.067291,67.233498 112.673706,66.706001 
	C113.373573,67.186943 113.735306,67.924377 114.067932,69.085251 
z"/>
<path fill="#FEFEFE" opacity="1.000000" stroke="none" 
	d="
M111.242859,76.366043 
	C111.300758,76.239975 111.550987,76.400032 111.550987,76.400032 
	C111.550987,76.400032 111.505867,76.671822 111.409653,76.704941 
	C111.313431,76.738060 111.184967,76.492119 111.242859,76.366043 
z"/>
<path fill="#FEFEFE" opacity="1.000000" stroke="none" 
	d="
M111.457108,59.400009 
	C111.493385,59.382397 111.489914,59.475422 111.512817,59.516159 
	C111.535721,59.556892 111.420830,59.417618 111.457108,59.400009 
z"/>
<path fill="#66727D" opacity="1.000000" stroke="none" 
	d="
M110.985077,68.850525 
	C111.374382,69.166946 111.410637,69.441444 111.220886,70.064423 
	C110.497635,69.963257 109.762772,69.567337 110.985077,68.850525 
z"/>
<path fill="#66727D" opacity="1.000000" stroke="none" 
	d="
M61.410835,67.963745 
	C60.756310,67.544678 60.460743,67.116425 59.992813,66.469917 
	C60.334980,65.868088 60.849518,65.484528 61.938835,65.073532 
	C62.831451,65.189407 63.106152,65.390320 63.437248,65.892776 
	C62.616539,66.410561 63.179600,68.140282 61.410835,67.963745 
z"/>
<path fill="#606D79" opacity="1.000000" stroke="none" 
	d="
M62.005188,64.985291 
	C62.001614,64.975304 61.971298,64.495087 61.992233,64.221840 
	C62.625710,63.692997 63.238255,63.437401 64.085251,63.144516 
	C65.029167,64.366753 63.939552,64.102341 63.168686,64.592682 
	C62.842968,65.094254 62.693882,65.260681 62.285446,65.214806 
	C62.026096,65.002502 62.008759,64.995270 62.005188,64.985291 
z"/>
<path fill="#737D86" opacity="1.000000" stroke="none" 
	d="
M62.190948,65.287094 
	C62.243885,64.991600 62.461185,64.974487 62.835026,64.939499 
	C63.276398,65.162201 63.560741,65.396576 63.694340,65.879272 
	C63.147663,65.942284 62.751732,65.756981 62.190948,65.287094 
z"/>
<path fill="#FEFEFE" opacity="1.000000" stroke="none" 
	d="
M63.671150,60.268356 
	C63.650986,60.251419 63.543980,60.344631 63.577068,60.346558 
	C63.610157,60.348484 63.691315,60.285290 63.671150,60.268356 
z"/>
<path fill="#66727D" opacity="1.000000" stroke="none" 
	d="
M72.906204,59.374420 
	C72.923164,59.667107 72.540047,59.705563 72.347931,59.701469 
	C72.155815,59.697380 72.033714,59.800110 72.049438,59.878330 
	C71.808617,59.739338 71.566803,59.506805 71.181625,59.062901 
	C71.023544,58.866825 70.974030,58.449860 70.962143,58.240440 
	C71.130020,58.019855 71.309784,58.008690 71.759705,57.993851 
	C72.182022,57.867832 72.334198,57.745487 72.740860,57.768105 
	C72.959984,58.302628 72.924614,58.692181 72.906204,59.374420 
z"/>
<path fill="#FEFEFE" opacity="1.000000" stroke="none" 
	d="
M72.936935,57.756454 
	C72.995354,57.913071 72.514099,57.970863 72.271973,57.980522 
	C72.133064,57.718384 72.236275,57.446590 72.599213,57.220459 
	C72.858940,57.266117 72.878525,57.599842 72.936935,57.756454 
z"/>
<path fill="#CACCCD" opacity="1.000000" stroke="none" 
	d="
M99.084290,107.294830 
	C99.003502,106.998383 99.445526,106.968582 99.665573,106.990723 
	C100.126358,107.274002 100.367096,107.535149 100.607841,107.796288 
	C100.045708,108.299492 99.586510,108.078262 99.084290,107.294830 
z"/>
<path fill="#BCBFC2" opacity="1.000000" stroke="none" 
	d="
M107.077042,103.984894 
	C106.806770,103.725235 106.849152,103.768051 106.820450,103.779007 
	C107.046135,103.736923 107.300522,103.683899 107.820747,103.344521 
	C108.023178,103.297684 107.959763,103.537201 107.973618,104.139923 
	C107.816368,104.416939 107.581841,104.330742 107.077042,103.984894 
z"/>
<path fill="#FEFEFE" opacity="1.000000" stroke="none" 
	d="
M60.997932,59.998631 
	C61.120758,60.243652 61.266945,60.473625 61.413136,60.703598 
	C61.196060,60.595222 60.978981,60.486847 60.915627,60.167061 
	C61.069355,59.955643 61.021301,59.983582 60.997932,59.998631 
z"/>
<path fill="#606D79" opacity="1.000000" stroke="none" 
	d="
M61.973209,64.001808 
	C61.953953,64.014229 61.650196,63.811878 61.650196,63.811878 
	C61.650196,63.811878 61.864029,63.823303 61.938599,63.885948 
	C62.013165,63.948593 61.992466,63.989388 61.973209,64.001808 
z"/>
<path fill="#EBECED" opacity="1.000000" stroke="none" 
	d="
M59.339035,86.805977 
	C59.363102,86.821465 59.430374,86.633118 59.383430,86.655411 
	C59.336487,86.677704 59.314964,86.790489 59.339035,86.805977 
z"/>
<path fill="#FEFEFE" opacity="1.000000" stroke="none" 
	d="
M114.508942,71.238235 
	C114.517143,71.209236 114.261215,70.999443 114.327164,71.059547 
	C114.393105,71.119652 114.341171,71.120377 114.349472,71.141220 
	C114.357765,71.162064 114.500740,71.267235 114.508942,71.238235 
z"/>
<path fill="#606D79" opacity="1.000000" stroke="none" 
	d="
M109.117462,98.121780 
	C109.134026,97.946884 109.131081,97.754211 109.037933,97.286980 
	C109.559906,97.137512 110.172089,97.262604 110.862823,97.703491 
	C110.941391,98.019287 110.561859,98.047371 110.376869,98.091934 
	C109.999733,98.227570 109.807579,98.318634 109.351212,98.231033 
	C109.086998,98.052361 109.097961,98.103996 109.117462,98.121780 
z"/>
<path fill="#606D79" opacity="1.000000" stroke="none" 
	d="
M109.047783,96.762009 
	C108.694244,96.898087 108.399147,96.744576 108.080688,96.332726 
	C108.406960,96.207069 108.756592,96.339745 109.047783,96.762009 
z"/>
<path fill="#CACCCD" opacity="1.000000" stroke="none" 
	d="
M108.314728,103.159599 
	C108.086594,103.058167 108.067741,103.018707 108.053375,103.019272 
	C107.816689,102.872894 107.594368,102.725937 107.323639,102.180115 
	C107.275246,101.781258 107.333084,101.776421 107.335457,101.801460 
	C107.809204,102.002495 108.280586,102.178490 108.876694,102.708946 
	C109.001427,103.063408 108.542862,103.261032 108.314728,103.159599 
z"/>
<path fill="#737D86" opacity="1.000000" stroke="none" 
	d="
M109.140228,98.272408 
	C109.273148,98.033791 109.459305,98.015221 109.918671,98.066574 
	C110.191879,98.136497 110.116188,98.540703 110.037224,98.730362 
	C109.628197,98.911804 109.373260,98.769287 109.140228,98.272408 
z"/>
<path fill="#FEFEFE" opacity="1.000000" stroke="none" 
	d="
M109.981155,100.901405 
	C110.253143,100.852028 110.568771,101.141388 110.963440,101.743622 
	C110.703262,101.784378 110.364029,101.512260 109.981155,100.901405 
z"/>
<path fill="#DDDEDF" opacity="1.000000" stroke="none" 
	d="
M113.011719,92.970383 
	C112.788429,92.767578 112.533478,92.569550 112.278534,92.371521 
	C112.529793,92.405060 112.781044,92.438599 112.994980,92.753624 
	C112.957649,93.035103 112.980072,92.975143 113.011719,92.970383 
z"/>
<path fill="#DDDEDF" opacity="1.000000" stroke="none" 
	d="
M68.996750,57.753181 
	C68.672638,57.883091 68.323723,57.725349 67.968475,57.270641 
	C68.298752,57.137627 68.635353,57.301579 68.996750,57.753181 
z"/>
<path fill="#DDDEDF" opacity="1.000000" stroke="none" 
	d="
M71.112549,59.120247 
	C71.342926,59.046757 71.662308,59.226688 72.023422,59.681587 
	C71.777283,59.762257 71.489410,59.567959 71.112549,59.120247 
z"/>
</svg>